<mxfile host="app.diagrams.net" modified="2023-06-09T00:56:02.899Z" agent="Mozilla/5.0 (Windows NT 10.0; Win64; x64) AppleWebKit/537.36 (KHTML, like Gecko) Chrome/114.0.0.0 Safari/537.36" etag="WBGcxpRQObC_-cg1cJmS" version="21.3.8" type="device" pages="4">
  <diagram name="Page-1" id="3uk8uTqoprIqWMUcahHa">
    <mxGraphModel dx="1434" dy="834" grid="1" gridSize="10" guides="1" tooltips="1" connect="1" arrows="1" fold="1" page="1" pageScale="1" pageWidth="850" pageHeight="1100" math="0" shadow="0">
      <root>
        <mxCell id="0" />
        <mxCell id="1" parent="0" />
        <mxCell id="VhShGSvri9P44K7WfUsX-3" style="edgeStyle=orthogonalEdgeStyle;rounded=0;orthogonalLoop=1;jettySize=auto;html=1;endArrow=none;endFill=0;" parent="1" source="VhShGSvri9P44K7WfUsX-2" edge="1">
          <mxGeometry relative="1" as="geometry">
            <mxPoint x="390" y="250" as="targetPoint" />
          </mxGeometry>
        </mxCell>
        <mxCell id="VhShGSvri9P44K7WfUsX-4" style="edgeStyle=orthogonalEdgeStyle;rounded=0;orthogonalLoop=1;jettySize=auto;html=1;endArrow=none;endFill=0;" parent="1" source="VhShGSvri9P44K7WfUsX-2" edge="1">
          <mxGeometry relative="1" as="geometry">
            <mxPoint x="520" y="360" as="targetPoint" />
          </mxGeometry>
        </mxCell>
        <mxCell id="VhShGSvri9P44K7WfUsX-5" style="edgeStyle=orthogonalEdgeStyle;rounded=0;orthogonalLoop=1;jettySize=auto;html=1;endArrow=none;endFill=0;" parent="1" source="VhShGSvri9P44K7WfUsX-2" edge="1">
          <mxGeometry relative="1" as="geometry">
            <mxPoint x="390" y="470" as="targetPoint" />
          </mxGeometry>
        </mxCell>
        <mxCell id="VhShGSvri9P44K7WfUsX-2" value="Caracteristicas Arquitectonicas Caso: Check Your Work&amp;nbsp;" style="ellipse;whiteSpace=wrap;html=1;aspect=fixed;" parent="1" vertex="1">
          <mxGeometry x="340" y="310" width="100" height="100" as="geometry" />
        </mxCell>
        <mxCell id="VhShGSvri9P44K7WfUsX-6" value="Seguridad&amp;nbsp;" style="text;html=1;align=center;verticalAlign=middle;resizable=0;points=[];autosize=1;strokeColor=none;fillColor=none;" parent="1" vertex="1">
          <mxGeometry x="345" y="220" width="80" height="30" as="geometry" />
        </mxCell>
        <mxCell id="VhShGSvri9P44K7WfUsX-7" value="Disponibilidad" style="text;html=1;align=center;verticalAlign=middle;resizable=0;points=[];autosize=1;strokeColor=none;fillColor=none;" parent="1" vertex="1">
          <mxGeometry x="510" y="340" width="100" height="30" as="geometry" />
        </mxCell>
        <mxCell id="VhShGSvri9P44K7WfUsX-8" value="Seguridad por que el sistema estara interactuando con datos sensibles como lo es&amp;nbsp;&lt;br&gt;en este caso las calificaciones por lo cual es de suma importancia garantizar dicha seguridad&amp;nbsp;&lt;br&gt;a estos datos. Disponibilidad ya que este sistema se usara en una gran cantidad de estudiantes y personal&lt;br&gt;esto conlleva a que siempre tendra que estar disponible cuando este se necesite." style="text;html=1;align=left;verticalAlign=middle;resizable=0;points=[];autosize=1;strokeColor=none;fillColor=none;" parent="1" vertex="1">
          <mxGeometry x="160" y="480" width="590" height="70" as="geometry" />
        </mxCell>
        <mxCell id="VhShGSvri9P44K7WfUsX-9" value="Julio ruiz" style="text;html=1;align=center;verticalAlign=middle;resizable=0;points=[];autosize=1;strokeColor=none;fillColor=none;" parent="1" vertex="1">
          <mxGeometry x="165" y="308" width="70" height="30" as="geometry" />
        </mxCell>
      </root>
    </mxGraphModel>
  </diagram>
  <diagram id="-Db-9Knmb81bAf2y8mgp" name="Page-2">
    <mxGraphModel dx="683" dy="397" grid="1" gridSize="10" guides="1" tooltips="1" connect="1" arrows="1" fold="1" page="1" pageScale="1" pageWidth="850" pageHeight="1100" math="0" shadow="0">
      <root>
        <mxCell id="0" />
        <mxCell id="1" parent="0" />
        <mxCell id="_rJKC7uxeDuSYSn3I7z7-1" style="edgeStyle=orthogonalEdgeStyle;rounded=0;orthogonalLoop=1;jettySize=auto;html=1;endArrow=none;endFill=0;" edge="1" parent="1" source="_rJKC7uxeDuSYSn3I7z7-4">
          <mxGeometry relative="1" as="geometry">
            <mxPoint x="390" y="250" as="targetPoint" />
          </mxGeometry>
        </mxCell>
        <mxCell id="_rJKC7uxeDuSYSn3I7z7-2" style="edgeStyle=orthogonalEdgeStyle;rounded=0;orthogonalLoop=1;jettySize=auto;html=1;endArrow=none;endFill=0;" edge="1" parent="1" source="_rJKC7uxeDuSYSn3I7z7-4">
          <mxGeometry relative="1" as="geometry">
            <mxPoint x="520" y="360" as="targetPoint" />
          </mxGeometry>
        </mxCell>
        <mxCell id="_rJKC7uxeDuSYSn3I7z7-3" style="edgeStyle=orthogonalEdgeStyle;rounded=0;orthogonalLoop=1;jettySize=auto;html=1;endArrow=none;endFill=0;" edge="1" parent="1" source="_rJKC7uxeDuSYSn3I7z7-4">
          <mxGeometry relative="1" as="geometry">
            <mxPoint x="390" y="470" as="targetPoint" />
          </mxGeometry>
        </mxCell>
        <mxCell id="_rJKC7uxeDuSYSn3I7z7-4" value="Caracteristicas Arquitectonicas Caso: Check Your Work&amp;nbsp;" style="ellipse;whiteSpace=wrap;html=1;aspect=fixed;" vertex="1" parent="1">
          <mxGeometry x="340" y="310" width="100" height="100" as="geometry" />
        </mxCell>
        <mxCell id="_rJKC7uxeDuSYSn3I7z7-5" value="Seguridad&amp;nbsp;" style="text;html=1;align=center;verticalAlign=middle;resizable=0;points=[];autosize=1;strokeColor=none;fillColor=none;" vertex="1" parent="1">
          <mxGeometry x="345" y="220" width="80" height="30" as="geometry" />
        </mxCell>
        <mxCell id="_rJKC7uxeDuSYSn3I7z7-6" value="Disponibilidad" style="text;html=1;align=center;verticalAlign=middle;resizable=0;points=[];autosize=1;strokeColor=none;fillColor=none;" vertex="1" parent="1">
          <mxGeometry x="510" y="340" width="100" height="30" as="geometry" />
        </mxCell>
        <mxCell id="_rJKC7uxeDuSYSn3I7z7-7" value="Julio ruiz" style="text;html=1;align=center;verticalAlign=middle;resizable=0;points=[];autosize=1;strokeColor=none;fillColor=none;" vertex="1" parent="1">
          <mxGeometry x="165" y="308" width="70" height="30" as="geometry" />
        </mxCell>
      </root>
    </mxGraphModel>
  </diagram>
  <diagram id="2ro1c2FKiy_XeRF5VvW7" name="Page-3">
    <mxGraphModel dx="1839" dy="575" grid="1" gridSize="10" guides="1" tooltips="1" connect="1" arrows="1" fold="1" page="1" pageScale="1" pageWidth="850" pageHeight="1100" math="0" shadow="0">
      <root>
        <mxCell id="0" />
        <mxCell id="1" parent="0" />
        <mxCell id="oXVNcwspnb5lOL5s_vwb-23" style="edgeStyle=orthogonalEdgeStyle;rounded=0;orthogonalLoop=1;jettySize=auto;html=1;" edge="1" parent="1" source="oXVNcwspnb5lOL5s_vwb-1" target="oXVNcwspnb5lOL5s_vwb-5">
          <mxGeometry relative="1" as="geometry" />
        </mxCell>
        <mxCell id="oXVNcwspnb5lOL5s_vwb-25" style="edgeStyle=orthogonalEdgeStyle;rounded=0;orthogonalLoop=1;jettySize=auto;html=1;entryX=0.5;entryY=0;entryDx=0;entryDy=0;" edge="1" parent="1" source="oXVNcwspnb5lOL5s_vwb-1" target="oXVNcwspnb5lOL5s_vwb-6">
          <mxGeometry relative="1" as="geometry" />
        </mxCell>
        <mxCell id="oXVNcwspnb5lOL5s_vwb-33" style="edgeStyle=orthogonalEdgeStyle;rounded=0;orthogonalLoop=1;jettySize=auto;html=1;entryX=0.389;entryY=0.007;entryDx=0;entryDy=0;entryPerimeter=0;" edge="1" parent="1" source="oXVNcwspnb5lOL5s_vwb-1" target="oXVNcwspnb5lOL5s_vwb-10">
          <mxGeometry relative="1" as="geometry">
            <Array as="points">
              <mxPoint x="227" y="350" />
            </Array>
          </mxGeometry>
        </mxCell>
        <mxCell id="oXVNcwspnb5lOL5s_vwb-1" value="Modulo de gestion en las asignaciones&amp;nbsp;" style="rounded=0;whiteSpace=wrap;html=1;" vertex="1" parent="1">
          <mxGeometry y="300" width="120" height="60" as="geometry" />
        </mxCell>
        <mxCell id="oXVNcwspnb5lOL5s_vwb-24" style="edgeStyle=orthogonalEdgeStyle;rounded=0;orthogonalLoop=1;jettySize=auto;html=1;entryX=0.5;entryY=0;entryDx=0;entryDy=0;" edge="1" parent="1" source="oXVNcwspnb5lOL5s_vwb-5" target="oXVNcwspnb5lOL5s_vwb-7">
          <mxGeometry relative="1" as="geometry" />
        </mxCell>
        <mxCell id="oXVNcwspnb5lOL5s_vwb-29" style="edgeStyle=orthogonalEdgeStyle;rounded=0;orthogonalLoop=1;jettySize=auto;html=1;entryX=0.994;entryY=0.664;entryDx=0;entryDy=0;entryPerimeter=0;" edge="1" parent="1" source="oXVNcwspnb5lOL5s_vwb-5" target="oXVNcwspnb5lOL5s_vwb-10">
          <mxGeometry relative="1" as="geometry">
            <Array as="points">
              <mxPoint x="380" y="430" />
            </Array>
          </mxGeometry>
        </mxCell>
        <mxCell id="oXVNcwspnb5lOL5s_vwb-5" value="Modulo ejecucion de codigo" style="rounded=0;whiteSpace=wrap;html=1;" vertex="1" parent="1">
          <mxGeometry x="365" y="300" width="120" height="60" as="geometry" />
        </mxCell>
        <mxCell id="oXVNcwspnb5lOL5s_vwb-26" style="edgeStyle=orthogonalEdgeStyle;rounded=0;orthogonalLoop=1;jettySize=auto;html=1;entryX=-0.006;entryY=0.626;entryDx=0;entryDy=0;entryPerimeter=0;" edge="1" parent="1" source="oXVNcwspnb5lOL5s_vwb-6" target="oXVNcwspnb5lOL5s_vwb-8">
          <mxGeometry relative="1" as="geometry">
            <Array as="points">
              <mxPoint x="60" y="688" />
            </Array>
          </mxGeometry>
        </mxCell>
        <mxCell id="oXVNcwspnb5lOL5s_vwb-32" style="edgeStyle=orthogonalEdgeStyle;rounded=0;orthogonalLoop=1;jettySize=auto;html=1;entryX=0.156;entryY=0.988;entryDx=0;entryDy=0;entryPerimeter=0;" edge="1" parent="1" source="oXVNcwspnb5lOL5s_vwb-6" target="oXVNcwspnb5lOL5s_vwb-10">
          <mxGeometry relative="1" as="geometry" />
        </mxCell>
        <mxCell id="oXVNcwspnb5lOL5s_vwb-6" value="Modulo de deteccion de plagio" style="rounded=0;whiteSpace=wrap;html=1;" vertex="1" parent="1">
          <mxGeometry y="450" width="120" height="60" as="geometry" />
        </mxCell>
        <mxCell id="oXVNcwspnb5lOL5s_vwb-28" style="edgeStyle=orthogonalEdgeStyle;rounded=0;orthogonalLoop=1;jettySize=auto;html=1;entryX=0.994;entryY=0.636;entryDx=0;entryDy=0;entryPerimeter=0;" edge="1" parent="1" source="oXVNcwspnb5lOL5s_vwb-7" target="oXVNcwspnb5lOL5s_vwb-8">
          <mxGeometry relative="1" as="geometry">
            <Array as="points">
              <mxPoint x="430" y="688" />
            </Array>
          </mxGeometry>
        </mxCell>
        <mxCell id="oXVNcwspnb5lOL5s_vwb-31" style="edgeStyle=orthogonalEdgeStyle;rounded=0;orthogonalLoop=1;jettySize=auto;html=1;entryX=0.989;entryY=0.94;entryDx=0;entryDy=0;entryPerimeter=0;" edge="1" parent="1" source="oXVNcwspnb5lOL5s_vwb-7" target="oXVNcwspnb5lOL5s_vwb-10">
          <mxGeometry relative="1" as="geometry">
            <Array as="points">
              <mxPoint x="299" y="500" />
            </Array>
          </mxGeometry>
        </mxCell>
        <mxCell id="oXVNcwspnb5lOL5s_vwb-7" value="Modulo de califcacion&amp;nbsp;" style="rounded=0;whiteSpace=wrap;html=1;" vertex="1" parent="1">
          <mxGeometry x="365" y="490" width="120" height="60" as="geometry" />
        </mxCell>
        <mxCell id="oXVNcwspnb5lOL5s_vwb-34" style="edgeStyle=orthogonalEdgeStyle;rounded=0;orthogonalLoop=1;jettySize=auto;html=1;" edge="1" parent="1" source="oXVNcwspnb5lOL5s_vwb-8" target="oXVNcwspnb5lOL5s_vwb-10">
          <mxGeometry relative="1" as="geometry">
            <Array as="points">
              <mxPoint x="140" y="680" />
              <mxPoint x="140" y="510" />
              <mxPoint x="240" y="510" />
            </Array>
          </mxGeometry>
        </mxCell>
        <mxCell id="oXVNcwspnb5lOL5s_vwb-8" value="Modulo LMS" style="rounded=0;whiteSpace=wrap;html=1;" vertex="1" parent="1">
          <mxGeometry x="160" y="650" width="120" height="60" as="geometry" />
        </mxCell>
        <mxCell id="oXVNcwspnb5lOL5s_vwb-35" style="edgeStyle=orthogonalEdgeStyle;rounded=0;orthogonalLoop=1;jettySize=auto;html=1;entryX=0.148;entryY=0.988;entryDx=0;entryDy=0;entryPerimeter=0;" edge="1" parent="1" source="oXVNcwspnb5lOL5s_vwb-9" target="oXVNcwspnb5lOL5s_vwb-7">
          <mxGeometry relative="1" as="geometry" />
        </mxCell>
        <mxCell id="oXVNcwspnb5lOL5s_vwb-36" style="edgeStyle=orthogonalEdgeStyle;rounded=0;orthogonalLoop=1;jettySize=auto;html=1;entryX=0.665;entryY=-0.002;entryDx=0;entryDy=0;entryPerimeter=0;" edge="1" parent="1" source="oXVNcwspnb5lOL5s_vwb-9" target="oXVNcwspnb5lOL5s_vwb-8">
          <mxGeometry relative="1" as="geometry" />
        </mxCell>
        <mxCell id="oXVNcwspnb5lOL5s_vwb-37" style="edgeStyle=orthogonalEdgeStyle;rounded=0;orthogonalLoop=1;jettySize=auto;html=1;entryX=0.785;entryY=1.017;entryDx=0;entryDy=0;entryPerimeter=0;" edge="1" parent="1" source="oXVNcwspnb5lOL5s_vwb-9" target="oXVNcwspnb5lOL5s_vwb-10">
          <mxGeometry relative="1" as="geometry">
            <Array as="points">
              <mxPoint x="260" y="495" />
              <mxPoint x="274" y="495" />
            </Array>
          </mxGeometry>
        </mxCell>
        <mxCell id="oXVNcwspnb5lOL5s_vwb-38" style="edgeStyle=orthogonalEdgeStyle;rounded=0;orthogonalLoop=1;jettySize=auto;html=1;entryX=0.661;entryY=0.95;entryDx=0;entryDy=0;entryPerimeter=0;" edge="1" parent="1" source="oXVNcwspnb5lOL5s_vwb-9" target="oXVNcwspnb5lOL5s_vwb-6">
          <mxGeometry relative="1" as="geometry" />
        </mxCell>
        <mxCell id="oXVNcwspnb5lOL5s_vwb-39" style="edgeStyle=orthogonalEdgeStyle;rounded=0;orthogonalLoop=1;jettySize=auto;html=1;entryX=0.946;entryY=1.002;entryDx=0;entryDy=0;entryPerimeter=0;" edge="1" parent="1" source="oXVNcwspnb5lOL5s_vwb-9" target="oXVNcwspnb5lOL5s_vwb-1">
          <mxGeometry relative="1" as="geometry">
            <Array as="points">
              <mxPoint x="200" y="520" />
              <mxPoint x="160" y="520" />
              <mxPoint x="160" y="390" />
              <mxPoint x="114" y="390" />
            </Array>
          </mxGeometry>
        </mxCell>
        <mxCell id="oXVNcwspnb5lOL5s_vwb-40" style="edgeStyle=orthogonalEdgeStyle;rounded=0;orthogonalLoop=1;jettySize=auto;html=1;entryX=0.25;entryY=1;entryDx=0;entryDy=0;" edge="1" parent="1" source="oXVNcwspnb5lOL5s_vwb-9" target="oXVNcwspnb5lOL5s_vwb-5">
          <mxGeometry relative="1" as="geometry">
            <Array as="points">
              <mxPoint x="330" y="550" />
              <mxPoint x="330" y="390" />
              <mxPoint x="395" y="390" />
            </Array>
          </mxGeometry>
        </mxCell>
        <mxCell id="oXVNcwspnb5lOL5s_vwb-9" value="Modulo de interfaz del usuario" style="rounded=0;whiteSpace=wrap;html=1;" vertex="1" parent="1">
          <mxGeometry x="180" y="540" width="120" height="60" as="geometry" />
        </mxCell>
        <mxCell id="oXVNcwspnb5lOL5s_vwb-10" value="Modulo de auditoria" style="rounded=0;whiteSpace=wrap;html=1;" vertex="1" parent="1">
          <mxGeometry x="180" y="390" width="120" height="60" as="geometry" />
        </mxCell>
        <mxCell id="oXVNcwspnb5lOL5s_vwb-41" value="EFERENTE" style="text;html=1;align=center;verticalAlign=middle;resizable=0;points=[];autosize=1;strokeColor=none;fillColor=none;" vertex="1" parent="1">
          <mxGeometry x="10" y="270" width="90" height="30" as="geometry" />
        </mxCell>
        <mxCell id="oXVNcwspnb5lOL5s_vwb-42" value="AFERENTE" style="text;html=1;align=center;verticalAlign=middle;resizable=0;points=[];autosize=1;strokeColor=none;fillColor=none;" vertex="1" parent="1">
          <mxGeometry x="390" y="270" width="90" height="30" as="geometry" />
        </mxCell>
        <mxCell id="oXVNcwspnb5lOL5s_vwb-43" value="AFERENTE" style="text;html=1;align=center;verticalAlign=middle;resizable=0;points=[];autosize=1;strokeColor=none;fillColor=none;" vertex="1" parent="1">
          <mxGeometry x="490" y="505" width="90" height="30" as="geometry" />
        </mxCell>
        <mxCell id="oXVNcwspnb5lOL5s_vwb-44" value="AFERENTE" style="text;html=1;align=center;verticalAlign=middle;resizable=0;points=[];autosize=1;strokeColor=none;fillColor=none;" vertex="1" parent="1">
          <mxGeometry x="-110" y="465" width="90" height="30" as="geometry" />
        </mxCell>
        <mxCell id="oXVNcwspnb5lOL5s_vwb-45" value="AFERENTE" style="text;html=1;align=center;verticalAlign=middle;resizable=0;points=[];autosize=1;strokeColor=none;fillColor=none;" vertex="1" parent="1">
          <mxGeometry x="180" y="720" width="90" height="30" as="geometry" />
        </mxCell>
        <mxCell id="oXVNcwspnb5lOL5s_vwb-46" value="AFERENTE" style="text;html=1;align=center;verticalAlign=middle;resizable=0;points=[];autosize=1;strokeColor=none;fillColor=none;" vertex="1" parent="1">
          <mxGeometry x="230" y="360" width="90" height="30" as="geometry" />
        </mxCell>
        <mxCell id="oXVNcwspnb5lOL5s_vwb-47" value="EFERENTE" style="text;html=1;align=center;verticalAlign=middle;resizable=0;points=[];autosize=1;strokeColor=none;fillColor=none;" vertex="1" parent="1">
          <mxGeometry x="250" y="600" width="90" height="30" as="geometry" />
        </mxCell>
        <mxCell id="oXVNcwspnb5lOL5s_vwb-48" value="Julio Ruiz&amp;nbsp;" style="text;html=1;align=center;verticalAlign=middle;resizable=0;points=[];autosize=1;strokeColor=none;fillColor=none;" vertex="1" parent="1">
          <mxGeometry x="200" y="270" width="80" height="30" as="geometry" />
        </mxCell>
      </root>
    </mxGraphModel>
  </diagram>
  <diagram id="fJllwKgA9KE66mjw0tG_" name="Page-4">
    <mxGraphModel dx="1195" dy="695" grid="1" gridSize="10" guides="1" tooltips="1" connect="1" arrows="1" fold="1" page="1" pageScale="1" pageWidth="850" pageHeight="1100" math="0" shadow="0">
      <root>
        <mxCell id="0" />
        <mxCell id="1" parent="0" />
        <mxCell id="y1k6_S38XSajqtWxakLt-1" value="WeaponBehavior" style="swimlane;fontStyle=1;align=center;verticalAlign=top;childLayout=stackLayout;horizontal=1;startSize=26;horizontalStack=0;resizeParent=1;resizeParentMax=0;resizeLast=0;collapsible=1;marginBottom=0;whiteSpace=wrap;html=1;" vertex="1" parent="1">
          <mxGeometry x="370" y="310" width="160" height="60" as="geometry" />
        </mxCell>
        <mxCell id="y1k6_S38XSajqtWxakLt-2" value="+ useWeapon()" style="text;strokeColor=none;fillColor=none;align=left;verticalAlign=top;spacingLeft=4;spacingRight=4;overflow=hidden;rotatable=0;points=[[0,0.5],[1,0.5]];portConstraint=eastwest;whiteSpace=wrap;html=1;" vertex="1" parent="y1k6_S38XSajqtWxakLt-1">
          <mxGeometry y="26" width="160" height="26" as="geometry" />
        </mxCell>
        <mxCell id="y1k6_S38XSajqtWxakLt-3" value="" style="line;strokeWidth=1;fillColor=none;align=left;verticalAlign=middle;spacingTop=-1;spacingLeft=3;spacingRight=3;rotatable=0;labelPosition=right;points=[];portConstraint=eastwest;strokeColor=inherit;" vertex="1" parent="y1k6_S38XSajqtWxakLt-1">
          <mxGeometry y="52" width="160" height="8" as="geometry" />
        </mxCell>
        <mxCell id="y1k6_S38XSajqtWxakLt-17" style="edgeStyle=orthogonalEdgeStyle;rounded=0;orthogonalLoop=1;jettySize=auto;html=1;" edge="1" parent="1" source="y1k6_S38XSajqtWxakLt-5">
          <mxGeometry relative="1" as="geometry">
            <mxPoint x="450" y="370" as="targetPoint" />
            <Array as="points">
              <mxPoint x="160" y="420" />
              <mxPoint x="451" y="420" />
              <mxPoint x="451" y="380" />
              <mxPoint x="450" y="380" />
            </Array>
          </mxGeometry>
        </mxCell>
        <mxCell id="y1k6_S38XSajqtWxakLt-5" value="KnifeBehavior" style="swimlane;fontStyle=1;align=center;verticalAlign=top;childLayout=stackLayout;horizontal=1;startSize=26;horizontalStack=0;resizeParent=1;resizeParentMax=0;resizeLast=0;collapsible=1;marginBottom=0;whiteSpace=wrap;html=1;" vertex="1" parent="1">
          <mxGeometry x="80" y="470" width="160" height="60" as="geometry" />
        </mxCell>
        <mxCell id="y1k6_S38XSajqtWxakLt-6" value="+ useWeapon()" style="text;strokeColor=none;fillColor=none;align=left;verticalAlign=top;spacingLeft=4;spacingRight=4;overflow=hidden;rotatable=0;points=[[0,0.5],[1,0.5]];portConstraint=eastwest;whiteSpace=wrap;html=1;" vertex="1" parent="y1k6_S38XSajqtWxakLt-5">
          <mxGeometry y="26" width="160" height="26" as="geometry" />
        </mxCell>
        <mxCell id="y1k6_S38XSajqtWxakLt-7" value="" style="line;strokeWidth=1;fillColor=none;align=left;verticalAlign=middle;spacingTop=-1;spacingLeft=3;spacingRight=3;rotatable=0;labelPosition=right;points=[];portConstraint=eastwest;strokeColor=inherit;" vertex="1" parent="y1k6_S38XSajqtWxakLt-5">
          <mxGeometry y="52" width="160" height="8" as="geometry" />
        </mxCell>
        <mxCell id="y1k6_S38XSajqtWxakLt-19" style="edgeStyle=orthogonalEdgeStyle;rounded=0;orthogonalLoop=1;jettySize=auto;html=1;entryX=0.5;entryY=1;entryDx=0;entryDy=0;" edge="1" parent="1" source="y1k6_S38XSajqtWxakLt-8" target="y1k6_S38XSajqtWxakLt-1">
          <mxGeometry relative="1" as="geometry" />
        </mxCell>
        <mxCell id="y1k6_S38XSajqtWxakLt-8" value="Bowandarrowbehavior" style="swimlane;fontStyle=1;align=center;verticalAlign=top;childLayout=stackLayout;horizontal=1;startSize=26;horizontalStack=0;resizeParent=1;resizeParentMax=0;resizeLast=0;collapsible=1;marginBottom=0;whiteSpace=wrap;html=1;" vertex="1" parent="1">
          <mxGeometry x="290" y="470" width="160" height="60" as="geometry" />
        </mxCell>
        <mxCell id="y1k6_S38XSajqtWxakLt-9" value="+ useWeapon()" style="text;strokeColor=none;fillColor=none;align=left;verticalAlign=top;spacingLeft=4;spacingRight=4;overflow=hidden;rotatable=0;points=[[0,0.5],[1,0.5]];portConstraint=eastwest;whiteSpace=wrap;html=1;" vertex="1" parent="y1k6_S38XSajqtWxakLt-8">
          <mxGeometry y="26" width="160" height="26" as="geometry" />
        </mxCell>
        <mxCell id="y1k6_S38XSajqtWxakLt-10" value="" style="line;strokeWidth=1;fillColor=none;align=left;verticalAlign=middle;spacingTop=-1;spacingLeft=3;spacingRight=3;rotatable=0;labelPosition=right;points=[];portConstraint=eastwest;strokeColor=inherit;" vertex="1" parent="y1k6_S38XSajqtWxakLt-8">
          <mxGeometry y="52" width="160" height="8" as="geometry" />
        </mxCell>
        <mxCell id="y1k6_S38XSajqtWxakLt-20" style="edgeStyle=orthogonalEdgeStyle;rounded=0;orthogonalLoop=1;jettySize=auto;html=1;entryX=0.5;entryY=1;entryDx=0;entryDy=0;" edge="1" parent="1" source="y1k6_S38XSajqtWxakLt-11" target="y1k6_S38XSajqtWxakLt-1">
          <mxGeometry relative="1" as="geometry" />
        </mxCell>
        <mxCell id="y1k6_S38XSajqtWxakLt-11" value="Axebehavior" style="swimlane;fontStyle=1;align=center;verticalAlign=top;childLayout=stackLayout;horizontal=1;startSize=26;horizontalStack=0;resizeParent=1;resizeParentMax=0;resizeLast=0;collapsible=1;marginBottom=0;whiteSpace=wrap;html=1;" vertex="1" parent="1">
          <mxGeometry x="490" y="470" width="160" height="60" as="geometry" />
        </mxCell>
        <mxCell id="y1k6_S38XSajqtWxakLt-12" value="+ useWeapon()" style="text;strokeColor=none;fillColor=none;align=left;verticalAlign=top;spacingLeft=4;spacingRight=4;overflow=hidden;rotatable=0;points=[[0,0.5],[1,0.5]];portConstraint=eastwest;whiteSpace=wrap;html=1;" vertex="1" parent="y1k6_S38XSajqtWxakLt-11">
          <mxGeometry y="26" width="160" height="26" as="geometry" />
        </mxCell>
        <mxCell id="y1k6_S38XSajqtWxakLt-13" value="" style="line;strokeWidth=1;fillColor=none;align=left;verticalAlign=middle;spacingTop=-1;spacingLeft=3;spacingRight=3;rotatable=0;labelPosition=right;points=[];portConstraint=eastwest;strokeColor=inherit;" vertex="1" parent="y1k6_S38XSajqtWxakLt-11">
          <mxGeometry y="52" width="160" height="8" as="geometry" />
        </mxCell>
        <mxCell id="y1k6_S38XSajqtWxakLt-21" style="edgeStyle=orthogonalEdgeStyle;rounded=0;orthogonalLoop=1;jettySize=auto;html=1;entryX=0.5;entryY=1;entryDx=0;entryDy=0;" edge="1" parent="1" source="y1k6_S38XSajqtWxakLt-14" target="y1k6_S38XSajqtWxakLt-1">
          <mxGeometry relative="1" as="geometry">
            <Array as="points">
              <mxPoint x="780" y="420" />
              <mxPoint x="450" y="420" />
            </Array>
          </mxGeometry>
        </mxCell>
        <mxCell id="y1k6_S38XSajqtWxakLt-14" value="Swordbehavior" style="swimlane;fontStyle=1;align=center;verticalAlign=top;childLayout=stackLayout;horizontal=1;startSize=26;horizontalStack=0;resizeParent=1;resizeParentMax=0;resizeLast=0;collapsible=1;marginBottom=0;whiteSpace=wrap;html=1;" vertex="1" parent="1">
          <mxGeometry x="700" y="470" width="160" height="60" as="geometry" />
        </mxCell>
        <mxCell id="y1k6_S38XSajqtWxakLt-15" value="+ useWeapon()" style="text;strokeColor=none;fillColor=none;align=left;verticalAlign=top;spacingLeft=4;spacingRight=4;overflow=hidden;rotatable=0;points=[[0,0.5],[1,0.5]];portConstraint=eastwest;whiteSpace=wrap;html=1;" vertex="1" parent="y1k6_S38XSajqtWxakLt-14">
          <mxGeometry y="26" width="160" height="26" as="geometry" />
        </mxCell>
        <mxCell id="y1k6_S38XSajqtWxakLt-16" value="" style="line;strokeWidth=1;fillColor=none;align=left;verticalAlign=middle;spacingTop=-1;spacingLeft=3;spacingRight=3;rotatable=0;labelPosition=right;points=[];portConstraint=eastwest;strokeColor=inherit;" vertex="1" parent="y1k6_S38XSajqtWxakLt-14">
          <mxGeometry y="52" width="160" height="8" as="geometry" />
        </mxCell>
        <mxCell id="y1k6_S38XSajqtWxakLt-22" value="Julio ruiz" style="text;html=1;align=center;verticalAlign=middle;resizable=0;points=[];autosize=1;strokeColor=none;fillColor=none;" vertex="1" parent="1">
          <mxGeometry x="420" y="260" width="70" height="30" as="geometry" />
        </mxCell>
        <mxCell id="y1k6_S38XSajqtWxakLt-23" value="Character" style="swimlane;fontStyle=1;align=center;verticalAlign=top;childLayout=stackLayout;horizontal=1;startSize=26;horizontalStack=0;resizeParent=1;resizeParentMax=0;resizeLast=0;collapsible=1;marginBottom=0;whiteSpace=wrap;html=1;" vertex="1" parent="1">
          <mxGeometry x="375" y="630" width="160" height="110" as="geometry" />
        </mxCell>
        <mxCell id="y1k6_S38XSajqtWxakLt-24" value="+ weaponbehavior weapon" style="text;strokeColor=none;fillColor=none;align=left;verticalAlign=top;spacingLeft=4;spacingRight=4;overflow=hidden;rotatable=0;points=[[0,0.5],[1,0.5]];portConstraint=eastwest;whiteSpace=wrap;html=1;" vertex="1" parent="y1k6_S38XSajqtWxakLt-23">
          <mxGeometry y="26" width="160" height="26" as="geometry" />
        </mxCell>
        <mxCell id="y1k6_S38XSajqtWxakLt-25" value="" style="line;strokeWidth=1;fillColor=none;align=left;verticalAlign=middle;spacingTop=-1;spacingLeft=3;spacingRight=3;rotatable=0;labelPosition=right;points=[];portConstraint=eastwest;strokeColor=inherit;" vertex="1" parent="y1k6_S38XSajqtWxakLt-23">
          <mxGeometry y="52" width="160" height="8" as="geometry" />
        </mxCell>
        <mxCell id="y1k6_S38XSajqtWxakLt-26" value="+ fight()&lt;br&gt;+setweapon()" style="text;strokeColor=none;fillColor=none;align=left;verticalAlign=top;spacingLeft=4;spacingRight=4;overflow=hidden;rotatable=0;points=[[0,0.5],[1,0.5]];portConstraint=eastwest;whiteSpace=wrap;html=1;" vertex="1" parent="y1k6_S38XSajqtWxakLt-23">
          <mxGeometry y="60" width="160" height="50" as="geometry" />
        </mxCell>
        <mxCell id="y1k6_S38XSajqtWxakLt-37" style="edgeStyle=orthogonalEdgeStyle;rounded=0;orthogonalLoop=1;jettySize=auto;html=1;entryX=0.469;entryY=1;entryDx=0;entryDy=0;entryPerimeter=0;" edge="1" parent="1" source="y1k6_S38XSajqtWxakLt-27" target="y1k6_S38XSajqtWxakLt-26">
          <mxGeometry relative="1" as="geometry" />
        </mxCell>
        <mxCell id="y1k6_S38XSajqtWxakLt-27" value="Queen&amp;nbsp;" style="swimlane;fontStyle=1;align=center;verticalAlign=top;childLayout=stackLayout;horizontal=1;startSize=26;horizontalStack=0;resizeParent=1;resizeParentMax=0;resizeLast=0;collapsible=1;marginBottom=0;whiteSpace=wrap;html=1;" vertex="1" parent="1">
          <mxGeometry x="70" y="790" width="160" height="34" as="geometry" />
        </mxCell>
        <mxCell id="y1k6_S38XSajqtWxakLt-29" value="" style="line;strokeWidth=1;fillColor=none;align=left;verticalAlign=middle;spacingTop=-1;spacingLeft=3;spacingRight=3;rotatable=0;labelPosition=right;points=[];portConstraint=eastwest;strokeColor=inherit;" vertex="1" parent="y1k6_S38XSajqtWxakLt-27">
          <mxGeometry y="26" width="160" height="8" as="geometry" />
        </mxCell>
        <mxCell id="y1k6_S38XSajqtWxakLt-38" style="edgeStyle=orthogonalEdgeStyle;rounded=0;orthogonalLoop=1;jettySize=auto;html=1;entryX=0.469;entryY=0.983;entryDx=0;entryDy=0;entryPerimeter=0;" edge="1" parent="1" source="y1k6_S38XSajqtWxakLt-31" target="y1k6_S38XSajqtWxakLt-26">
          <mxGeometry relative="1" as="geometry" />
        </mxCell>
        <mxCell id="y1k6_S38XSajqtWxakLt-31" value="King" style="swimlane;fontStyle=1;align=center;verticalAlign=top;childLayout=stackLayout;horizontal=1;startSize=26;horizontalStack=0;resizeParent=1;resizeParentMax=0;resizeLast=0;collapsible=1;marginBottom=0;whiteSpace=wrap;html=1;" vertex="1" parent="1">
          <mxGeometry x="280" y="790" width="160" height="34" as="geometry" />
        </mxCell>
        <mxCell id="y1k6_S38XSajqtWxakLt-32" value="" style="line;strokeWidth=1;fillColor=none;align=left;verticalAlign=middle;spacingTop=-1;spacingLeft=3;spacingRight=3;rotatable=0;labelPosition=right;points=[];portConstraint=eastwest;strokeColor=inherit;" vertex="1" parent="y1k6_S38XSajqtWxakLt-31">
          <mxGeometry y="26" width="160" height="8" as="geometry" />
        </mxCell>
        <mxCell id="y1k6_S38XSajqtWxakLt-39" style="edgeStyle=orthogonalEdgeStyle;rounded=0;orthogonalLoop=1;jettySize=auto;html=1;entryX=0.469;entryY=1.017;entryDx=0;entryDy=0;entryPerimeter=0;" edge="1" parent="1" source="y1k6_S38XSajqtWxakLt-33" target="y1k6_S38XSajqtWxakLt-26">
          <mxGeometry relative="1" as="geometry" />
        </mxCell>
        <mxCell id="y1k6_S38XSajqtWxakLt-33" value="Troll" style="swimlane;fontStyle=1;align=center;verticalAlign=top;childLayout=stackLayout;horizontal=1;startSize=26;horizontalStack=0;resizeParent=1;resizeParentMax=0;resizeLast=0;collapsible=1;marginBottom=0;whiteSpace=wrap;html=1;" vertex="1" parent="1">
          <mxGeometry x="500" y="790" width="160" height="34" as="geometry" />
        </mxCell>
        <mxCell id="y1k6_S38XSajqtWxakLt-34" value="" style="line;strokeWidth=1;fillColor=none;align=left;verticalAlign=middle;spacingTop=-1;spacingLeft=3;spacingRight=3;rotatable=0;labelPosition=right;points=[];portConstraint=eastwest;strokeColor=inherit;" vertex="1" parent="y1k6_S38XSajqtWxakLt-33">
          <mxGeometry y="26" width="160" height="8" as="geometry" />
        </mxCell>
        <mxCell id="y1k6_S38XSajqtWxakLt-40" style="edgeStyle=orthogonalEdgeStyle;rounded=0;orthogonalLoop=1;jettySize=auto;html=1;entryX=0.469;entryY=1;entryDx=0;entryDy=0;entryPerimeter=0;" edge="1" parent="1" source="y1k6_S38XSajqtWxakLt-35" target="y1k6_S38XSajqtWxakLt-26">
          <mxGeometry relative="1" as="geometry" />
        </mxCell>
        <mxCell id="y1k6_S38XSajqtWxakLt-35" value="Knight" style="swimlane;fontStyle=1;align=center;verticalAlign=top;childLayout=stackLayout;horizontal=1;startSize=26;horizontalStack=0;resizeParent=1;resizeParentMax=0;resizeLast=0;collapsible=1;marginBottom=0;whiteSpace=wrap;html=1;" vertex="1" parent="1">
          <mxGeometry x="730" y="800" width="160" height="34" as="geometry" />
        </mxCell>
        <mxCell id="y1k6_S38XSajqtWxakLt-36" value="" style="line;strokeWidth=1;fillColor=none;align=left;verticalAlign=middle;spacingTop=-1;spacingLeft=3;spacingRight=3;rotatable=0;labelPosition=right;points=[];portConstraint=eastwest;strokeColor=inherit;" vertex="1" parent="y1k6_S38XSajqtWxakLt-35">
          <mxGeometry y="26" width="160" height="8" as="geometry" />
        </mxCell>
      </root>
    </mxGraphModel>
  </diagram>
</mxfile>
